<svg width="60" height="58" viewBox="0 0 60 58" fill="none" xmlns="http://www.w3.org/2000/svg">
<rect y="2" width="56" height="56" rx="28" fill="#E8E8E8"/>
<g clip-path="url(#clip0_511_5478)">
<path d="M25.2607 39.35C25.2607 39.9946 24.7511 40.5 24.1436 40.5C23.536 40.5 23.0264 39.9946 23.0264 39.35C23.0264 38.7053 23.536 38.2 24.1436 38.2C24.7511 38.2 25.2607 38.7053 25.2607 39.35Z" fill="#BDBDBD" stroke="#252B42"/>
<path d="M35.0859 39.35C35.0859 39.9946 34.5763 40.5 33.9688 40.5C33.3612 40.5 32.8516 39.9946 32.8516 39.35C32.8516 38.7053 33.3612 38.2 33.9688 38.2C34.5763 38.2 35.0859 38.7053 35.0859 39.35Z" fill="#BDBDBD" stroke="#252B42"/>
<path d="M37.947 21.7827L37.9554 21.7927C37.9778 21.8194 37.9945 21.8517 38.0036 21.8874C38.0123 21.9218 38.0135 21.9579 38.0071 21.9929L35.7301 32.2531L35.73 32.2536C35.7179 32.3085 35.6879 32.3553 35.6477 32.3873C35.6078 32.4191 35.5598 32.4347 35.5119 32.4336L35.5119 32.4334H35.4995H24.402H24.2187L24.0789 32.5518L22.3467 34.0185L22.277 34.0775L22.2327 34.1572C22.1506 34.305 22.1076 34.4712 22.1072 34.6398C22.1067 34.8084 22.1489 34.9748 22.2302 35.123C22.3116 35.2712 22.4298 35.3968 22.5742 35.4866C22.7187 35.5764 22.8843 35.6271 23.0549 35.6331L23.0636 35.6334H23.0723H35.1832C35.238 35.6334 35.2925 35.6555 35.3344 35.6982C35.3765 35.7412 35.402 35.8016 35.402 35.8667C35.402 35.9318 35.3765 35.9923 35.3344 36.0353C35.2925 36.078 35.238 36.1001 35.1832 36.1001H23.1873H23.1747L23.1621 36.1007C22.9336 36.1122 22.7054 36.0691 22.4956 35.9743L22.2898 36.4301L22.4956 35.9743C22.2872 35.8803 22.1021 35.7377 21.9555 35.557C21.7527 35.2926 21.6451 34.9632 21.653 34.6247C21.6607 34.2901 21.7807 33.9699 21.9908 33.7172L22.0533 33.6533L23.2128 32.6868L23.469 32.4732L23.3701 32.1546L20.0711 21.5212L19.9933 21.2705L19.7427 21.1922L17.1628 20.3856C17.1628 20.3856 17.1627 20.3856 17.1627 20.3856C17.1087 20.3686 17.0604 20.3294 17.0312 20.2731C17.0017 20.2164 16.9952 20.149 17.014 20.0866C17.0327 20.0244 17.074 19.9754 17.1251 19.9478C17.1504 19.9341 17.1776 19.9259 17.2053 19.9232C17.2329 19.9205 17.2609 19.9234 17.2877 19.9318C17.2877 19.9318 17.2877 19.9318 17.2877 19.9318L20.2346 20.8558L20.2355 20.8561C20.268 20.8662 20.2986 20.8845 20.3243 20.9103C20.3498 20.936 20.3697 20.9683 20.3814 21.0049C20.3815 21.0052 20.3816 21.0055 20.3817 21.0059L23.6656 31.6146L23.7746 31.9667H24.1432H34.9245H35.3272L35.413 31.5733L37.3321 22.7733L37.4643 22.1667H36.8435H23.6534L23.5048 21.7001H37.7829C37.8132 21.7004 37.8434 21.7076 37.8715 21.7213L38.0917 21.2724L37.8715 21.7213C37.9001 21.7353 37.926 21.756 37.9472 21.7826L37.947 21.7827Z" fill="#BDBDBD" stroke="#252B42"/>
</g>
<g clip-path="url(#clip1_511_5478)">
<rect x="41" width="19" height="19" rx="9.5" fill="#2091F9"/>
<path d="M49.1757 6V7.09H50.6557V13H51.9557V6H49.1757Z" fill="white"/>
</g>
<defs>
<clipPath id="clip0_511_5478">
<rect width="23" height="22" fill="white" transform="translate(16 19)"/>
</clipPath>
<clipPath id="clip1_511_5478">
<rect x="41" width="19" height="19" rx="9.5" fill="white"/>
</clipPath>
</defs>
</svg>
