<svg width="61" height="58" viewBox="0 0 61 58" fill="none" xmlns="http://www.w3.org/2000/svg">
<rect x="0.5" y="2" width="56" height="56" rx="28" fill="#E8E8E8" fill-opacity="0.4"/>
<rect x="1" y="2.5" width="55" height="55" rx="27.5" stroke="white" stroke-opacity="0.5"/>
<g clip-path="url(#clip0_512_4627)">
<path d="M25.7607 39.35C25.7607 39.9946 25.2511 40.5 24.6436 40.5C24.036 40.5 23.5264 39.9946 23.5264 39.35C23.5264 38.7053 24.036 38.2 24.6436 38.2C25.2511 38.2 25.7607 38.7053 25.7607 39.35Z" fill="#BDBDBD" stroke="white"/>
<path d="M35.5859 39.35C35.5859 39.9946 35.0763 40.5 34.4688 40.5C33.8612 40.5 33.3516 39.9946 33.3516 39.35C33.3516 38.7053 33.8612 38.2 34.4688 38.2C35.0763 38.2 35.5859 38.7053 35.5859 39.35Z" fill="#BDBDBD" stroke="white"/>
<path d="M38.4475 21.7827L38.4559 21.7927C38.4783 21.8194 38.495 21.8517 38.5041 21.8874C38.5128 21.9218 38.514 21.9579 38.5076 21.9929L36.2306 32.2531L36.2305 32.2536C36.2184 32.3085 36.1884 32.3553 36.1482 32.3873C36.1083 32.4191 36.0603 32.4347 36.0124 32.4336L36.0124 32.4334H36H24.9025H24.7192L24.5794 32.5518L22.8472 34.0185L22.7775 34.0775L22.7332 34.1572C22.6511 34.305 22.6081 34.4712 22.6077 34.6398C22.6072 34.8084 22.6494 34.9748 22.7307 35.123C22.8121 35.2712 22.9302 35.3968 23.0747 35.4866C23.2192 35.5764 23.3848 35.6271 23.5554 35.6331L23.5641 35.6334H23.5728H35.6837C35.7385 35.6334 35.793 35.6555 35.8349 35.6982C35.877 35.7412 35.9025 35.8016 35.9025 35.8667C35.9025 35.9318 35.877 35.9923 35.8349 36.0353C35.793 36.078 35.7385 36.1001 35.6837 36.1001H23.6878H23.6752L23.6626 36.1007C23.4341 36.1122 23.2059 36.0691 22.996 35.9743L22.7903 36.4301L22.996 35.9743C22.7876 35.8803 22.6026 35.7377 22.456 35.557C22.2532 35.2926 22.1456 34.9632 22.1534 34.6247C22.1612 34.2901 22.2812 33.9699 22.4913 33.7172L22.5538 33.6533L23.7133 32.6868L23.9695 32.4732L23.8706 32.1546L20.5716 21.5212L20.4938 21.2705L20.2432 21.1922L17.6633 20.3856C17.6633 20.3856 17.6632 20.3856 17.6632 20.3856C17.6092 20.3686 17.5609 20.3294 17.5316 20.2731C17.5022 20.2164 17.4957 20.149 17.5145 20.0866C17.5332 20.0244 17.5744 19.9754 17.6256 19.9478C17.6509 19.9341 17.6781 19.9259 17.7058 19.9232C17.7334 19.9205 17.7613 19.9234 17.7882 19.9318C17.7882 19.9318 17.7882 19.9318 17.7882 19.9318L20.7351 20.8558L20.736 20.8561C20.7685 20.8662 20.7991 20.8845 20.8248 20.9103C20.8503 20.936 20.8702 20.9683 20.8819 21.0049C20.882 21.0052 20.8821 21.0055 20.8822 21.0059L24.1661 31.6146L24.2751 31.9667H24.6437H35.425H35.8277L35.9135 31.5733L37.8326 22.7733L37.9648 22.1667H37.344H24.1539L24.0052 21.7001H38.2834C38.3137 21.7004 38.3439 21.7076 38.372 21.7213L38.5921 21.2724L38.372 21.7213C38.4005 21.7353 38.4265 21.756 38.4477 21.7826L38.4475 21.7827Z" fill="#BDBDBD" stroke="white"/>
</g>
<rect x="41.5" width="19" height="19" rx="9.5" fill="#2091F9"/>
<path d="M51.9557 6V13H50.6557V7.09H49.1757V6H51.9557Z" fill="white"/>
<defs>
<clipPath id="clip0_512_4627">
<rect width="23" height="22" fill="white" transform="translate(16.5 19)"/>
</clipPath>
</defs>
</svg>
